<svg version="1.0" xmlns="http://www.w3.org/2000/svg"
 width="751.000000pt" height="168.000000pt" viewBox="0 0 751.000000 168.000000"
 preserveAspectRatio="xMidYMid meet">
<g transform="translate(0.000000,168.000000) scale(0.100000,-0.100000)"
fill="#000000" stroke="none">
<path d="M414 1574 c-57 -14 -93 -49 -100 -96 -6 -33 -2 -41 55 -102 33 -36
61 -74 61 -84 0 -10 -16 -128 -34 -263 -19 -134 -47 -329 -61 -434 -15 -104
-31 -197 -36 -207 -5 -10 -41 -43 -80 -74 -39 -31 -75 -68 -80 -82 -15 -40 1
-83 40 -106 31 -18 53 -19 241 -19 238 0 269 7 304 77 23 48 11 81 -49 130
-24 20 -47 48 -52 63 -7 20 -1 84 18 223 16 107 28 198 29 203 0 4 10 7 23 7
16 0 115 -93 357 -336 184 -185 353 -349 374 -365 76 -56 172 -27 196 59 5 20
39 248 75 507 95 681 82 614 125 655 20 19 58 52 83 73 53 43 68 84 43 122
-35 54 -50 57 -269 57 -221 1 -243 -4 -286 -58 -36 -46 -28 -85 30 -141 28
-26 55 -58 60 -70 10 -27 -34 -350 -51 -367 -7 -7 -17 -6 -33 4 -13 8 -151
146 -307 307 -225 232 -291 295 -324 307 -53 19 -290 26 -352 10z"/>
<path d="M6785 1295 c-173 -39 -279 -114 -338 -242 -18 -40 -22 -65 -22 -148
1 -89 4 -106 28 -153 43 -82 97 -126 234 -194 136 -66 173 -99 173 -153 0 -42
-26 -59 -91 -58 -84 1 -134 43 -194 163 -19 37 -41 70 -50 74 -64 24 -161 -26
-203 -104 -19 -37 -23 -55 -19 -101 11 -134 109 -224 297 -276 90 -25 319 -25
408 0 221 60 362 220 362 412 0 133 -67 228 -210 297 -41 20 -106 51 -143 69
-78 37 -107 68 -107 115 0 39 29 64 76 64 34 0 52 -15 122 -98 48 -58 98 -78
166 -68 79 13 126 77 126 172 0 152 -165 245 -435 243 -66 0 -147 -7 -180 -14z"/>
<path d="M2400 1284 c-294 -63 -500 -275 -555 -569 -45 -241 56 -464 257 -563
89 -43 180 -62 308 -62 224 0 399 70 545 216 192 192 252 504 139 726 -36 71
-123 159 -194 197 -126 67 -337 91 -500 55z m206 -312 c55 -82 38 -344 -32
-489 -33 -69 -74 -103 -125 -103 -73 0 -99 54 -99 207 0 172 48 333 117 394
29 25 42 30 76 27 34 -2 45 -9 63 -36z"/>
<path d="M5745 1282 c-72 -27 -84 -34 -166 -102 -101 -83 -121 -81 -170 14
-23 45 -43 72 -60 78 -47 18 -187 -7 -344 -62 -181 -63 -255 -109 -255 -161 0
-26 8 -33 70 -64 73 -37 100 -69 100 -121 0 -14 -25 -170 -56 -345 -61 -351
-61 -349 -1 -393 25 -19 42 -21 150 -21 106 0 129 3 172 23 117 54 129 81 190
442 57 333 93 410 192 410 48 0 73 -25 73 -74 0 -16 -23 -162 -51 -325 -54
-316 -58 -384 -23 -422 42 -46 72 -54 199 -53 193 3 386 62 454 140 33 37 40
78 19 107 -7 9 -43 29 -80 46 -71 32 -92 56 -84 99 3 15 22 113 42 217 70 354
49 485 -91 558 -58 30 -210 35 -280 9z"/>
<path d="M3500 1266 c-169 -59 -320 -162 -320 -218 0 -26 7 -32 74 -62 120
-55 123 -68 76 -321 -36 -194 -38 -282 -9 -361 53 -141 187 -214 393 -214 110
0 196 27 275 85 34 25 64 45 67 45 3 0 29 -21 58 -46 28 -26 65 -53 83 -60 77
-33 264 -3 399 62 85 42 134 91 134 134 0 38 -27 62 -98 89 -71 28 -92 46 -92
83 0 17 25 171 55 344 30 173 55 331 55 350 0 26 -8 43 -28 64 -35 35 -90 45
-211 38 -146 -9 -227 -59 -261 -164 -7 -19 -31 -162 -54 -317 -45 -298 -63
-361 -110 -392 -39 -26 -110 -31 -141 -11 -49 32 -49 48 -5 343 47 320 48 350
16 419 -56 120 -201 164 -356 110z"/>
</g>
</svg>
